<?xml version="1.0" encoding="UTF-8" standalone="no"?>
<!DOCTYPE svg PUBLIC "-//W3C//DTD SVG 1.1//EN" "http://www.w3.org/Graphics/SVG/1.1/DTD/svg11.dtd">
<!-- 由 Microsoft Visio, SVG Export 生成 AI.svg Page-1 -->
<svg xmlns="http://www.w3.org/2000/svg" xmlns:xlink="http://www.w3.org/1999/xlink" xmlns:ev="http://www.w3.org/2001/xml-events"
		xmlns:v="http://schemas.microsoft.com/visio/2003/SVGExtensions/" width="1.77165in" height="0.590551in"
		viewBox="0 0 127.559 42.5197" xml:space="preserve" color-interpolation-filters="sRGB" class="st2">
	<v:documentProperties v:langID="2052" v:metric="true" v:viewMarkup="false">
		<v:userDefs>
			<v:ud v:nameU="msvNoAutoConnect" v:val="VT0(1):26"/>
		</v:userDefs>
	</v:documentProperties>

	<style type="text/css">
	<![CDATA[
		.st1 {fill:#ffffff;stroke:none;stroke-linecap:butt;stroke-width:0.75}
		.st2 {fill:none;fill-rule:evenodd;font-size:12px;overflow:visible;stroke-linecap:square;stroke-miterlimit:3}
	]]>
	</style>

	<g v:mID="0" v:index="1" v:groupContext="foregroundPage">
		<title>页-1</title>
		<v:pageProperties v:drawingScale="0.0393701" v:pageScale="0.0393701" v:drawingUnits="24" v:shadowOffsetX="9"
				v:shadowOffsetY="-9"/>
		<g id="group96-1" transform="translate(5.34338,-9.33328)" v:mID="96" v:groupContext="group">
			<title>Group-Copy</title>
			<g id="shape97-2" v:mID="97" v:groupContext="shape" transform="translate(30.4273,-8.52651E-14)">
				<title>Artificial-Intellige</title>
				<path d="M4.54 41.08 L3.86 41.08 L3.44 40.03 L1.09 40.03 L0.67 41.08 L0 41.08 L1.9 36.38 L2.65 36.38 L4.54 41.08
							 ZM3.28 39.52 L2.27 36.99 L1.27 39.52 L3.28 39.52 ZM5.59 41.09 L5.05 41.09 L5.05 37.68 L5.59 37.68 L5.59
							 38.22 C5.85 37.85 6.27 37.62 6.73 37.6 L6.73 38.14 L6.52 38.14 C6.15 38.17 5.8 38.38 5.59 38.69 L5.59
							 41.09 ZM8.19 41.18 C7.98 41.2 7.77 41.12 7.62 40.96 C7.48 40.8 7.41 40.59 7.44 40.38 L7.44 38.13 L6.87
							 38.13 L6.87 37.66 L7.44 37.66 L7.44 36.75 L7.98 36.75 L7.98 37.68 L8.67 37.68 L8.67 38.14 L7.98 38.14
							 L7.98 40.27 C7.98 40.53 8.09 40.72 8.32 40.72 C8.45 40.72 8.58 40.66 8.68 40.57 L8.83 40.97 C8.66 41.12
							 8.42 41.19 8.19 41.17 L8.19 41.18 ZM9.59 37.2 C9.45 37.22 9.31 37.16 9.24 37.04 C9.16 36.92 9.16 36.77
							 9.24 36.65 C9.31 36.53 9.45 36.47 9.59 36.49 C9.77 36.51 9.9 36.66 9.9 36.84 C9.9 37.02 9.77 37.17 9.59
							 37.2 ZM9.85 41.09 L9.32 41.09 L9.32 37.68 L9.85 37.68 L9.85 41.09 ZM11.52 41.09 L10.99 41.09 L10.99
							 38.14 L10.42 38.14 L10.42 37.68 L10.99 37.68 L10.99 37.42 C10.95 37.13 11.04 36.85 11.23 36.63 C11.42
							 36.42 11.7 36.3 11.98 36.31 C12.17 36.3 12.35 36.34 12.51 36.42 L12.37 36.82 C12.28 36.77 12.18 36.74
							 12.07 36.75 C11.71 36.75 11.52 36.98 11.52 37.42 L11.52 37.68 L12.19 37.68 L12.19 38.14 L11.5 38.14
							 L11.52 41.09 ZM13.12 37.2 C12.99 37.22 12.85 37.16 12.77 37.04 C12.69 36.92 12.69 36.77 12.77 36.65
							 C12.85 36.53 12.99 36.47 13.12 36.49 C13.3 36.51 13.43 36.66 13.43 36.84 C13.43 37.02 13.3 37.17 13.12
							 37.2 ZM13.39 41.09 L12.85 41.09 L12.85 37.68 L13.39 37.68 L13.39 41.09 ZM15.88 41.18 C14.94 41.12 14.21
							 40.34 14.21 39.39 C14.21 38.45 14.94 37.67 15.88 37.6 C16.38 37.58 16.85 37.8 17.14 38.2 L16.78 38.51
							 C16.59 38.23 16.26 38.06 15.91 38.08 C15.58 38.08 15.26 38.22 15.03 38.47 C14.81 38.72 14.7 39.05 14.73
							 39.39 C14.7 39.73 14.81 40.07 15.04 40.32 C15.28 40.57 15.6 40.71 15.94 40.7 C16.29 40.71 16.62 40.54
							 16.81 40.25 L17.17 40.58 C16.87 40.98 16.38 41.2 15.88 41.17 L15.88 41.18 ZM18.08 37.2 C17.94 37.2 17.8
							 37.12 17.74 36.98 C17.69 36.85 17.72 36.69 17.82 36.58 C17.92 36.48 18.08 36.45 18.22 36.51 C18.35 36.57
							 18.44 36.7 18.43 36.85 C18.43 37.04 18.27 37.19 18.08 37.19 L18.08 37.2 ZM18.34 41.09 L17.81 41.09 L17.81
							 37.68 L18.34 37.68 L18.34 41.09 ZM22 41.09 L21.47 41.09 L21.47 40.71 C21.18 41.02 20.77 41.19 20.34
							 41.18 C20.03 41.2 19.73 41.08 19.5 40.87 C19.28 40.66 19.15 40.36 19.15 40.05 C19.14 39.74 19.27 39.44
							 19.5 39.22 C19.72 39.01 20.03 38.9 20.34 38.92 C20.77 38.9 21.18 39.07 21.47 39.39 L21.47 38.77 C21.47
							 38.32 21.1 38.06 20.6 38.06 C20.2 38.05 19.82 38.23 19.56 38.53 L19.3 38.17 C19.66 37.79 20.16 37.59
							 20.68 37.6 C21.43 37.6 22 37.93 22 38.75 L22 41.09 ZM20.5 40.8 C20.87 40.81 21.22 40.65 21.44 40.37
							 L21.44 39.73 C21.21 39.45 20.87 39.29 20.5 39.31 C20.09 39.31 19.75 39.64 19.75 40.06 C19.75 40.47 20.09
							 40.81 20.5 40.81 L20.5 40.8 ZM23.5 41.09 L22.97 41.09 L22.97 36.38 L23.5 36.38 L23.5 41.09 ZM26.86 41.09
							 L26.27 41.09 L26.27 36.38 L26.86 36.38 L26.86 41.09 ZM30.71 41.09 L30.19 41.09 L30.19 38.84 C30.19 38.23
							 29.88 38.05 29.44 38.05 C29.04 38.07 28.67 38.26 28.42 38.58 L28.42 41.07 L27.89 41.07 L27.89 37.68
							 L28.42 37.68 L28.42 38.17 C28.73 37.82 29.18 37.61 29.65 37.6 C29.96 37.56 30.26 37.66 30.47 37.87 C30.68
							 38.09 30.79 38.39 30.74 38.69 L30.71 41.09 ZM32.57 41.18 C32.36 41.2 32.15 41.12 32.01 40.96 C31.86
							 40.8 31.79 40.59 31.82 40.38 L31.82 38.13 L31.25 38.13 L31.25 37.66 L31.82 37.66 L31.82 36.75 L32.36
							 36.75 L32.36 37.68 L33.06 37.68 L33.06 38.14 L32.36 38.14 L32.36 40.27 C32.36 40.53 32.47 40.72 32.7
							 40.72 C32.84 40.72 32.97 40.66 33.07 40.57 L33.22 40.97 C33.04 41.12 32.82 41.19 32.59 41.17 L32.57
							 41.18 ZM35.26 41.18 C34.32 41.14 33.57 40.37 33.55 39.42 C33.53 38.48 34.25 37.68 35.2 37.6 C35.66 37.61
							 36.11 37.8 36.42 38.15 C36.73 38.5 36.89 38.96 36.84 39.43 L36.84 39.52 L34.08 39.52 C34.08 39.84 34.22
							 40.15 34.45 40.37 C34.67 40.59 34.98 40.71 35.3 40.7 C35.7 40.7 36.08 40.55 36.37 40.27 L36.62 40.61
							 C36.27 40.97 35.79 41.17 35.29 41.17 L35.26 41.18 ZM36.31 39.16 C36.32 38.86 36.2 38.57 35.99 38.36
							 C35.78 38.15 35.49 38.03 35.19 38.04 C34.57 38.05 34.08 38.55 34.07 39.16 L36.31 39.16 ZM38.15 41.09
							 L37.62 41.09 L37.62 36.38 L38.15 36.38 L38.15 41.09 ZM39.65 41.09 L39.19 41.09 L39.19 36.38 L39.73 36.38
							 L39.65 41.09 ZM40.9 37.2 C40.76 37.2 40.62 37.12 40.57 36.98 C40.51 36.85 40.54 36.69 40.64 36.58 C40.75
							 36.48 40.9 36.45 41.04 36.51 C41.17 36.57 41.26 36.7 41.26 36.85 C41.26 37.02 41.12 37.17 40.95 37.19
							 L40.9 37.2 ZM41.17 41.09 L40.69 41.09 L40.69 37.68 L41.23 37.68 L41.17 41.09 ZM43.53 42.48 C43.01 42.52
							 42.51 42.33 42.14 41.96 L42.41 41.58 C42.69 41.9 43.1 42.08 43.53 42.04 C43.82 42.09 44.13 42.01 44.35
							 41.81 C44.57 41.61 44.69 41.32 44.68 41.02 L44.68 40.51 C44.41 40.87 43.98 41.1 43.52 41.11 C43.08 41.1
							 42.66 40.9 42.38 40.57 C42.09 40.23 41.96 39.79 42.02 39.35 C41.96 38.91 42.09 38.47 42.38 38.13 C42.66
							 37.79 43.08 37.59 43.52 37.58 C43.98 37.58 44.41 37.81 44.68 38.18 L44.68 37.66 L45.19 37.66 L45.19
							 41.02 C45.19 42.12 44.44 42.47 43.57 42.47 L43.53 42.48 ZM43.61 40.66 C44.02 40.65 44.4 40.45 44.63
							 40.12 L44.63 38.62 C44.4 38.28 44.02 38.08 43.61 38.08 C42.91 38.08 42.51 38.62 42.51 39.37 C42.51 40.13
							 42.94 40.66 43.69 40.66 L43.61 40.66 ZM47.71 41.18 C46.76 41.14 46.01 40.37 45.99 39.42 C45.97 38.48
							 46.7 37.68 47.64 37.6 C48.11 37.61 48.55 37.8 48.86 38.15 C49.18 38.5 49.33 38.96 49.28 39.43 L49.28
							 39.52 L46.52 39.52 C46.53 39.84 46.66 40.15 46.89 40.37 C47.12 40.59 47.43 40.71 47.74 40.7 C48.14 40.7
							 48.53 40.55 48.81 40.27 L49.06 40.61 C48.72 40.96 48.25 41.16 47.75 41.17 L47.71 41.18 ZM48.76 39.16
							 C48.77 38.86 48.65 38.57 48.44 38.36 C48.22 38.15 47.93 38.03 47.63 38.04 C47.02 38.05 46.52 38.55 46.51
							 39.16 L48.76 39.16 ZM52.91 41.09 L52.39 41.09 L52.39 38.84 C52.39 38.23 52.07 38.05 51.64 38.05 C51.24
							 38.07 50.86 38.26 50.62 38.58 L50.62 41.07 L50.08 41.07 L50.08 37.68 L50.62 37.68 L50.62 38.17 C50.93
							 37.82 51.37 37.61 51.85 37.6 C52.15 37.56 52.45 37.66 52.66 37.87 C52.88 38.09 52.98 38.39 52.93 38.69
							 L52.91 41.09 ZM55.41 41.18 C54.47 41.12 53.73 40.34 53.73 39.39 C53.73 38.45 54.47 37.67 55.41 37.6
							 C55.9 37.57 56.38 37.8 56.67 38.2 L56.31 38.51 C56.11 38.23 55.79 38.06 55.44 38.08 C55.1 38.08 54.78
							 38.22 54.56 38.47 C54.33 38.72 54.22 39.05 54.25 39.39 C54.22 39.72 54.33 40.06 54.56 40.31 C54.78 40.56
							 55.1 40.7 55.44 40.71 C55.79 40.72 56.11 40.55 56.31 40.26 L56.67 40.59 C56.38 40.97 55.93 41.18 55.45
							 41.17 L55.41 41.18 ZM58.9 41.18 C57.95 41.14 57.2 40.37 57.18 39.42 C57.16 38.48 57.89 37.68 58.83 37.6
							 C59.3 37.61 59.74 37.8 60.05 38.15 C60.37 38.5 60.52 38.96 60.47 39.43 L60.47 39.52 L57.71 39.52 C57.72
							 39.84 57.85 40.15 58.08 40.37 C58.31 40.59 58.62 40.71 58.93 40.7 C59.35 40.72 59.75 40.56 60.04 40.27
							 L60.3 40.62 C59.94 40.98 59.45 41.18 58.94 41.17 L58.9 41.18 ZM59.95 39.16 C59.95 38.86 59.84 38.57
							 59.62 38.36 C59.41 38.15 59.12 38.03 58.82 38.04 C58.21 38.05 57.71 38.55 57.7 39.16 L59.95 39.16 ZM63.62
							 41.09 L63.04 41.09 L63.04 36.38 L63.62 36.38 L63.62 41.09 ZM67.48 41.09 L66.95 41.09 L66.95 38.84 C66.95
							 38.23 66.64 38.05 66.2 38.05 C65.8 38.07 65.43 38.26 65.18 38.58 L65.18 41.07 L64.69 41.07 L64.69 37.68
							 L65.23 37.68 L65.23 38.17 C65.54 37.82 65.98 37.61 66.46 37.6 C66.76 37.56 67.06 37.66 67.27 37.87 C67.49
							 38.09 67.59 38.39 67.54 38.69 L67.48 41.09 ZM69.56 41.18 C69.04 41.2 68.54 41.01 68.17 40.64 L68.44
							 40.26 C68.74 40.57 69.14 40.75 69.57 40.75 C70.09 40.75 70.39 40.5 70.39 40.16 C70.39 39.34 68.26 39.85
							 68.26 38.58 C68.26 38.05 68.72 37.6 69.54 37.6 C70.01 37.59 70.47 37.76 70.81 38.09 L70.56 38.46 C70.3
							 38.18 69.93 38.02 69.54 38.03 C69.07 38.03 68.79 38.26 68.79 38.56 C68.79 39.31 70.9 38.82 70.9 40.15
							 C70.94 40.72 70.48 41.17 69.61 41.17 L69.56 41.18 ZM72.56 41.18 C72.35 41.2 72.14 41.12 72 40.96 C71.85
							 40.8 71.78 40.59 71.81 40.38 L71.81 38.13 L71.25 38.13 L71.25 37.66 L71.81 37.66 L71.81 36.75 L72.35
							 36.75 L72.35 37.68 L73.05 37.68 L73.05 38.14 L72.35 38.14 L72.35 40.27 C72.35 40.53 72.46 40.72 72.7
							 40.72 C72.83 40.71 72.96 40.66 73.06 40.57 L73.21 40.97 C73.04 41.11 72.82 41.18 72.6 41.17 L72.56 41.18
							 ZM73.97 37.2 C73.83 37.22 73.69 37.16 73.62 37.04 C73.54 36.92 73.54 36.77 73.62 36.65 C73.69 36.53
							 73.83 36.47 73.97 36.49 C74.15 36.51 74.28 36.66 74.28 36.84 C74.28 37.02 74.15 37.17 73.97 37.2 ZM74.23
							 41.09 L73.7 41.09 L73.7 37.68 L74.23 37.68 L74.23 41.09 ZM76.09 41.18 C75.87 41.2 75.67 41.12 75.52
							 40.96 C75.37 40.8 75.31 40.59 75.34 40.38 L75.34 38.13 L74.77 38.13 L74.77 37.66 L75.34 37.66 L75.34
							 36.75 L75.88 36.75 L75.88 37.68 L76.57 37.68 L76.57 38.14 L75.88 38.14 L75.88 40.27 C75.88 40.53 75.99
							 40.72 76.21 40.72 C76.35 40.72 76.48 40.66 76.58 40.57 L76.74 40.97 C76.57 41.11 76.35 41.18 76.12 41.17
							 L76.09 41.18 ZM80.07 41.09 L79.54 41.09 L79.54 40.61 C79.23 40.96 78.78 41.17 78.31 41.18 C78.02 41.22
							 77.71 41.12 77.5 40.91 C77.28 40.7 77.18 40.39 77.23 40.09 L77.23 37.68 L77.76 37.68 L77.76 39.93 C77.76
							 40.53 78.06 40.68 78.51 40.68 C78.91 40.67 79.27 40.48 79.51 40.16 L79.51 37.68 L80.05 37.68 L80.07
							 41.09 ZM81.92 41.18 C81.71 41.2 81.5 41.12 81.36 40.96 C81.21 40.8 81.14 40.59 81.17 40.38 L81.17 38.13
							 L80.61 38.13 L80.61 37.66 L81.19 37.66 L81.19 36.75 L81.73 36.75 L81.73 37.68 L82.43 37.68 L82.43 38.14
							 L81.73 38.14 L81.73 40.27 C81.73 40.53 81.85 40.72 82.08 40.72 C82.21 40.71 82.34 40.66 82.44 40.57
							 L82.6 40.97 C82.41 41.12 82.18 41.19 81.94 41.17 L81.92 41.18 ZM84.61 41.18 C83.67 41.14 82.92 40.37
							 82.9 39.42 C82.88 38.48 83.6 37.68 84.55 37.6 C85.02 37.6 85.46 37.8 85.78 38.15 C86.09 38.5 86.24 38.96
							 86.2 39.43 L86.2 39.52 L83.44 39.52 C83.45 39.84 83.58 40.15 83.81 40.37 C84.04 40.59 84.35 40.71 84.67
							 40.7 C85.07 40.7 85.45 40.55 85.73 40.27 L85.99 40.61 C85.64 40.97 85.15 41.17 84.65 41.17 L84.61 41.18
							 ZM85.69 39.16 C85.7 38.86 85.58 38.57 85.37 38.35 C85.15 38.14 84.86 38.03 84.56 38.03 C83.95 38.04
							 83.45 38.54 83.44 39.16 L85.69 39.16 Z" class="st1"/>
			</g>
			<g id="shape98-4" v:mID="98" v:groupContext="shape" transform="translate(1.57874E-13,-0.139428)">
				<title>Shape</title>
				<path d="M13.01 18.81 C8.38 18.81 4.27 21.77 2.8 26.16 L0.02 34.11 C0 34.17 0 34.24 0.02 34.31 C0.05 34.36 0.1 34.41
							 0.16 34.43 L2.75 34.43 L2.75 39.66 C2.75 40.49 3.42 41.16 4.25 41.16 L7.37 41.16 L7.37 41.25 C7.54 41.7
							 7.87 42.07 8.29 42.27 C8.73 42.49 9.24 42.52 9.7 42.36 C10.51 42.08 11.02 41.26 10.91 40.4 C10.8 39.55
							 10.11 38.88 9.24 38.81 C8.38 38.74 7.59 39.28 7.34 40.11 L7.34 40.21 L4.29 40.21 C4.15 40.22 4.01 40.17
							 3.91 40.07 C3.8 39.98 3.73 39.84 3.73 39.7 L3.73 33.46 L1.63 33.46 C1.49 33.46 1.37 33.35 1.38 33.25
							 C1.36 33.21 1.36 33.16 1.38 33.12 L3.69 26.44 C4.97 22.58 8.51 19.91 12.57 19.73 C16.64 19.56 20.39
							 21.92 21.99 25.66 C23.59 29.41 22.72 33.75 19.78 36.57 L18.38 37.86 L18.38 41.4 L13.37 41.4 L13.37 37.55
							 L13.51 37.55 C13.87 37.53 14.24 37.49 14.6 37.42 C15.17 37.29 15.73 37.1 16.26 36.86 L16.62 36.69 C16.66
							 36.67 16.68 36.61 16.66 36.57 L16.18 35.53 L16.29 35.46 C16.61 35.27 16.92 35.04 17.2 34.8 L17.3 34.71
							 L17.4 34.8 L18.15 35.55 C18.19 35.58 18.24 35.58 18.28 35.55 L18.56 35.27 C19.39 34.44 20.02 33.45 20.42
							 32.36 L20.56 31.98 C20.57 31.94 20.55 31.89 20.5 31.87 L19.61 31.55 C19.49 31.5 19.42 31.38 19.45 31.25
							 C19.52 30.96 19.57 30.67 19.6 30.38 C19.62 30.24 19.73 30.14 19.87 30.14 L20.87 30.14 C20.9 30.14 20.92
							 30.13 20.93 30.11 C20.95 30.09 20.96 30.07 20.95 30.05 L20.95 29.65 C20.96 28.48 20.7 27.32 20.2 26.25
							 L20.03 25.89 C20 25.87 19.95 25.87 19.92 25.89 L19.06 26.28 C19 26.31 18.92 26.31 18.86 26.28 C18.8
							 26.26 18.75 26.22 18.72 26.17 C18.56 25.91 18.39 25.66 18.2 25.42 C18.11 25.32 18.11 25.17 18.2 25.07
							 L18.89 24.38 C18.89 24.3 18.89 24.27 18.89 24.26 L18.62 23.95 C18.21 23.54 17.75 23.17 17.26 22.86 C16.77
							 22.55 16.24 22.29 15.69 22.11 L15.31 21.96 C15.22 21.96 15.21 21.96 15.2 22.02 L14.87 22.89 C14.83 23.02
							 14.69 23.09 14.56 23.06 C14.27 22.99 13.98 22.94 13.7 22.9 C13.57 22.91 13.45 22.8 13.44 22.67 L13.44
							 21.66 C13.4 21.58 13.38 21.57 13.35 21.57 L12.96 21.57 C11.79 21.57 10.63 21.83 9.56 22.32 L9.2 22.49
							 C9.18 22.51 9.17 22.53 9.16 22.55 C9.16 22.55 9.28 22.86 9.56 23.46 C9.62 23.59 9.57 23.73 9.46 23.8
							 C9.19 23.95 8.94 24.12 8.71 24.31 C8.61 24.4 8.46 24.4 8.36 24.31 L7.69 23.64 C7.66 23.61 7.61 23.61
							 7.57 23.64 L7.28 23.93 C6.45 24.75 5.81 25.75 5.41 26.85 L5.27 27.22 C5.27 27.31 5.31 27.33 5.33 27.33
							 L6.23 27.66 C6.35 27.71 6.42 27.84 6.38 27.96 C6.25 28.49 6.19 29.04 6.19 29.58 L6.19 30.07 L11.19 30.07
							 L11.23 30.17 C11.51 31.02 12.37 31.54 13.26 31.39 C14.14 31.25 14.79 30.48 14.79 29.59 C14.79 28.69
							 14.14 27.93 13.26 27.78 C12.37 27.64 11.51 28.16 11.23 29.01 L11.19 29.1 L7.19 29.1 L7.19 28.95 C7.24
							 28.49 7.35 28.05 7.5 27.62 L7.63 27.24 C7.64 27.22 7.65 27.2 7.64 27.18 C7.63 27.16 7.61 27.14 7.59
							 27.13 L6.77 26.83 C6.7 26.8 6.65 26.75 6.62 26.68 C6.59 26.61 6.6 26.53 6.63 26.46 C6.75 26.23 6.88
							 26.01 7 25.8 C7.14 25.6 7.29 25.4 7.45 25.2 C7.5 25.15 7.56 25.11 7.63 25.11 C7.7 25.1 7.78 25.12 7.83
							 25.17 L8.44 25.78 C8.53 25.78 8.55 25.78 8.57 25.78 L8.85 25.5 C9.33 25.02 9.88 24.64 10.49 24.36 L10.85
							 24.18 C10.9 24.16 10.92 24.11 10.9 24.06 L10.53 23.31 C10.51 23.25 10.51 23.18 10.53 23.12 C10.56 23.05
							 10.61 22.99 10.69 22.96 C10.93 22.88 11.18 22.81 11.44 22.76 C11.68 22.71 11.93 22.66 12.19 22.63 C12.26
							 22.63 12.33 22.65 12.39 22.7 C12.44 22.75 12.47 22.82 12.47 22.89 L12.47 23.75 C12.52 23.82 12.53 23.83
							 12.55 23.83 L12.97 23.83 C13.64 23.83 14.31 23.95 14.94 24.18 L15.31 24.32 C15.36 24.33 15.41 24.31
							 15.43 24.27 L15.73 23.46 C15.75 23.39 15.79 23.34 15.85 23.31 C15.92 23.28 16 23.28 16.07 23.31 C16.3
							 23.42 16.52 23.55 16.73 23.68 C16.95 23.82 17.16 23.97 17.35 24.14 C17.41 24.18 17.45 24.26 17.44 24.33
							 C17.44 24.41 17.41 24.48 17.35 24.53 L16.75 25.11 C16.75 25.19 16.75 25.21 16.75 25.23 L17.02 25.51
							 C17.5 25.98 17.89 26.53 18.17 27.14 L18.36 27.51 C18.39 27.55 18.44 27.57 18.49 27.55 L19.24 27.18 C19.3
							 27.16 19.36 27.16 19.42 27.18 C19.49 27.21 19.55 27.26 19.58 27.33 C19.67 27.58 19.73 27.83 19.78 28.08
							 C19.84 28.33 19.88 28.58 19.91 28.83 C19.92 28.9 19.9 28.97 19.85 29.03 C19.8 29.09 19.73 29.12 19.66
							 29.13 L18.8 29.13 C18.72 29.16 18.7 29.19 18.7 29.22 L18.7 29.61 C18.71 30.29 18.59 30.95 18.36 31.59
							 L18.22 31.95 C18.22 32.04 18.22 32.06 18.28 32.07 L19.09 32.36 C19.23 32.42 19.29 32.58 19.24 32.73
							 C19.12 32.94 19.01 33.14 18.85 33.39 C18.71 33.6 18.55 33.81 18.38 34.01 C18.33 34.05 18.26 34.08 18.19
							 34.08 C18.12 34.08 18.06 34.05 18.01 34 L17.39 33.39 C17.31 33.39 17.29 33.39 17.27 33.39 L16.98 33.69
							 C16.51 34.17 15.95 34.57 15.34 34.86 L14.98 35.03 C14.94 35.05 14.92 35.09 14.93 35.13 L15.32 35.91
							 C15.35 35.98 15.35 36.05 15.32 36.12 C15.3 36.18 15.24 36.24 15.18 36.27 C14.94 36.34 14.7 36.41 14.43
							 36.47 C13.93 36.55 13.43 36.6 12.93 36.62 L12.46 36.62 L12.46 42.37 L19.37 42.37 L19.37 38.37 L19.42
							 38.26 L20.47 37.26 C22.53 35.29 23.72 32.58 23.77 29.73 C23.83 26.89 22.75 24.14 20.77 22.09 C18.73
							 20 15.93 18.81 13.01 18.81 ZM8.91 39.87 C8.99 39.84 9.07 39.83 9.15 39.83 C9.3 39.83 9.45 39.86 9.58
							 39.93 C9.78 40.05 9.93 40.23 9.99 40.46 C10.06 40.68 10.03 40.91 9.91 41.11 C9.8 41.31 9.61 41.46 9.38
							 41.52 C9.16 41.59 8.92 41.56 8.72 41.45 C8.52 41.34 8.37 41.15 8.31 40.92 C8.27 40.77 8.27 40.61 8.31
							 40.46 C8.38 40.17 8.62 39.94 8.91 39.87 ZM13.37 28.87 C13.58 28.98 13.73 29.18 13.78 29.4 C13.82 29.55
							 13.82 29.71 13.78 29.85 C13.7 30.15 13.47 30.37 13.18 30.45 C12.96 30.51 12.72 30.48 12.52 30.36 C12.21
							 30.2 12.03 29.85 12.07 29.5 C12.11 29.15 12.37 28.86 12.71 28.77 L12.89 28.72 L12.89 28.76 C13.06 28.74
							 13.23 28.78 13.37 28.87 Z" class="st1"/>
			</g>
			<g id="shape99-6" v:mID="99" v:groupContext="shape" transform="translate(30.0373,-10.1356)">
				<title>人工智能研究院</title>
				<path d="M0.13 42.47 L0 42.29 C4.5 39.11 4.43 35.23 4.44 31.47 L6.33 31.64 C6.33 31.81 6.23 31.91 5.84 31.94 C6.15
							 35.77 7.34 39.09 11.3 41.17 L11.3 41.3 C10.66 41.38 10.16 41.86 10.07 42.49 C7.11 40.43 6.16 37.24 5.8
							 33.89 C5.57 37.03 4.76 40.22 0.13 42.47 ZM21.59 41.15 L22.4 40.1 L23.9 41.18 C23.81 41.33 23.66 41.39
							 23.3 41.39 L12.62 41.39 L12.56 41.15 L17.48 41.15 L17.48 33.31 L13.43 33.31 L13.36 33.07 L20.84 33.07
							 L21.65 32.03 L23.15 33.09 C23.05 33.25 22.89 33.31 22.55 33.31 L18.86 33.31 L18.86 41.15 L21.59 41.15
							 ZM28.46 37.73 L33 37.73 L33.51 37.07 L34.88 38.03 C34.75 38.17 34.59 38.26 34.4 38.27 L34.4 42.08 C34.03
							 42.34 33.57 42.46 33.12 42.41 L33.12 41.66 L28.34 41.66 L28.34 42.05 C28.34 42.05 28.17 42.52 27.07
							 42.52 L27.07 37.19 L28.46 37.73 ZM33.12 39.51 L33.12 38.01 L28.34 38.01 L28.34 39.51 L33.12 39.51 ZM28.37
							 39.75 L28.37 41.41 L33.12 41.41 L33.12 39.75 L28.37 39.75 ZM34.41 32.41 L34.91 31.76 L36.27 32.71 C36.13
							 32.85 35.95 32.93 35.76 32.96 L35.76 36.47 C35.4 36.72 34.96 36.83 34.53 36.77 L34.53 35.9 L32.53 35.9
							 L32.53 36.59 C32.53 36.59 32.37 37.03 31.31 37.03 L31.31 31.88 L32.59 32.41 L34.41 32.41 ZM32.53 32.65
							 L32.53 35.65 L34.53 35.65 L34.53 32.65 L32.53 32.65 ZM30.01 33.65 L31.22 34.52 C31.12 34.67 30.96 34.73
							 30.64 34.73 L28.75 34.73 C28.69 34.97 28.62 35.2 28.53 35.43 C30.07 35.57 30.59 36.18 30.59 36.69 C30.6
							 36.85 30.55 37.01 30.44 37.12 C30.33 37.24 30.18 37.31 30.02 37.31 C29.88 37.31 29.75 37.26 29.64 37.17
							 C29.35 36.6 28.92 36.1 28.4 35.72 C27.94 36.59 27.07 37.31 25.4 37.85 L25.27 37.67 C26.51 37.18 27.39
							 36.05 27.59 34.73 L25.2 34.73 L25.13 34.49 L27.59 34.49 C27.65 33.94 27.68 33.38 27.67 32.83 L27.23
							 32.83 C26.87 33.4 26.41 33.88 25.85 34.25 L25.7 34.15 C26.17 33.22 26.48 32.22 26.62 31.19 L28.2 31.63
							 C28.15 31.77 28.06 31.85 27.75 31.85 C27.64 32.11 27.52 32.36 27.38 32.6 L29.09 32.6 L29.72 31.75 L30.92
							 32.63 C30.83 32.78 30.67 32.84 30.35 32.84 L28.92 32.84 C28.91 33.4 28.87 33.95 28.79 34.5 L29.36 34.5
							 L30.01 33.65 ZM41.6 37.55 L41.6 36.09 L39.59 36.09 L39.59 37.55 L41.6 37.55 ZM39.63 35.85 L41.48 35.85
							 L41.99 35.18 L43.37 36.16 C43.23 36.29 43.05 36.38 42.86 36.41 L42.86 40.94 C42.86 41.75 42.74 42.34
							 41.36 42.5 C41.36 41.54 41.05 41.33 40.45 41.24 L40.45 41.08 L41.45 41.08 C41.55 41.08 41.59 41.04 41.59
							 40.91 L41.59 39.51 L39.59 39.51 L39.59 42.01 C39.59 42.01 39.43 42.47 38.39 42.47 L38.39 35.31 L39.63
							 35.85 ZM39.59 37.79 L39.59 39.29 L41.61 39.29 L41.61 37.79 L39.59 37.79 ZM39.48 31.19 L41.31 31.66 C41.27
							 31.8 41.15 31.86 40.85 31.85 C40.39 32.55 39.89 33.22 39.35 33.86 L41.94 33.78 C41.7 33.41 41.4 33.07
							 41.05 32.8 L41.12 32.7 C43.03 33 43.64 33.8 43.64 34.4 C43.65 34.79 43.36 35.11 42.98 35.15 C42.79 35.15
							 42.61 35.07 42.47 34.94 C42.4 34.63 42.28 34.33 42.12 34.06 C41.27 34.31 40.11 34.63 38.53 35.01 C38.47
							 35.15 38.34 35.25 38.19 35.27 L37.6 33.91 L38.84 33.91 C39.09 33.01 39.32 31.95 39.47 31.19 L39.48 31.19
							 ZM48.41 34.09 L48.41 35.3 C48.86 35.47 48.91 35.53 48.91 35.71 C48.91 36.19 48.53 36.46 47.36 36.46
							 L45.59 36.46 C44.32 36.46 44.09 36.18 44.09 35.06 L44.09 31.22 L45.76 31.35 C45.76 31.49 45.66 31.57
							 45.35 31.61 L45.35 33.41 C46.12 33.01 46.86 32.54 47.55 32 L48.81 32.97 C48.73 33.05 48.61 33.09 48.5
							 33.08 C48.37 33.08 48.25 33.06 48.14 33.02 C47.22 33.31 46.29 33.53 45.35 33.69 L45.35 35.06 C45.35
							 35.36 45.35 35.39 45.71 35.39 L47.39 35.39 C47.55 35.41 47.71 35.36 47.83 35.24 C48.04 34.88 48.21 34.49
							 48.34 34.09 L48.41 34.09 ZM48.41 39.87 L48.51 39.87 L48.51 41.11 C48.97 41.29 49.02 41.35 49.02 41.53
							 C49.02 42.01 48.63 42.28 47.44 42.28 L45.59 42.28 C44.3 42.28 44.03 42 44.03 40.86 L44.03 36.81 L45.73
							 36.95 C45.73 37.09 45.63 37.16 45.31 37.21 L45.31 38.96 C46.1 38.53 46.85 38.03 47.56 37.46 L48.92 38.47
							 C48.83 38.56 48.71 38.6 48.59 38.59 C48.47 38.59 48.34 38.57 48.22 38.53 C47.26 38.85 46.27 39.1 45.28
							 39.28 L45.28 40.87 C45.28 41.2 45.28 41.21 45.65 41.21 L47.39 41.21 C47.6 41.21 47.72 41.21 47.84 41.08
							 C48.07 40.71 48.26 40.32 48.41 39.91 L48.41 39.87 ZM60.04 36.57 L60.63 35.65 L61.74 36.59 C61.64 36.75
							 61.49 36.8 61.16 36.8 L59.93 36.8 L59.93 42.11 C59.93 42.11 59.81 42.49 58.67 42.49 L58.67 36.8 L57.35
							 36.8 C57.3 38.96 56.81 41.11 53.96 42.47 L53.83 42.35 C55.71 40.85 56.08 38.91 56.15 36.8 L54.92 36.8
							 L54.86 36.57 L56.15 36.57 L56.15 32.55 L55.11 32.55 L53.09 32.55 C52.93 33.7 52.62 34.83 52.18 35.9
							 L52.46 36.01 L53.39 36.01 L53.89 35.37 L55.21 36.31 C55.07 36.44 54.89 36.53 54.7 36.56 L54.7 40.91
							 C54.7 40.91 54.38 41.21 53.52 41.21 L53.52 40.37 L52.3 40.37 L52.3 41.59 C52.3 41.67 51.94 41.93 51.36
							 41.93 L51.17 41.93 L51.17 37.73 C50.89 38.13 50.59 38.51 50.27 38.87 L50.09 38.71 C51.02 36.77 51.59
							 34.68 51.76 32.53 L50.26 32.53 L50.19 32.29 L53.67 32.29 L54.35 31.41 L55.63 32.31 L59.48 32.31 L60.16
							 31.4 L61.43 32.33 C61.33 32.49 61.17 32.54 60.85 32.54 L59.97 32.54 L59.97 36.56 L60.04 36.57 ZM57.36
							 32.55 L57.36 36.57 L58.67 36.57 L58.67 32.55 L57.36 32.55 ZM53.52 40.13 L53.52 36.23 L52.3 36.23 L52.3
							 40.13 L53.52 40.13 ZM63.03 37.19 L62.97 37.01 C65.33 36.2 65.97 34.76 66.13 33.14 L64.63 33.14 C64.64
							 33.26 64.64 33.39 64.63 33.5 C64.67 33.84 64.58 34.17 64.36 34.43 C64.15 34.69 63.84 34.85 63.5 34.87
							 C63.32 34.9 63.14 34.85 62.99 34.74 C62.85 34.62 62.76 34.45 62.75 34.27 C62.79 33.95 63.01 33.68 63.32
							 33.57 C63.84 33.36 64.17 32.84 64.13 32.27 L64.31 32.27 C64.4 32.48 64.47 32.69 64.52 32.91 L67.66 32.91
							 L67.66 31.17 L69.45 31.35 C69.45 31.49 69.32 31.58 68.99 31.64 L68.99 32.9 L71.99 32.9 L72.74 32.15
							 L74 33.34 C73.91 33.44 73.78 33.47 73.53 33.48 C73.02 33.98 72.45 34.41 71.84 34.77 L71.73 34.69 C71.9
							 34.19 72.03 33.68 72.14 33.16 L70.79 33.16 C70.69 33.23 70.57 33.27 70.45 33.28 L70.45 35.28 C70.45
							 35.54 70.45 35.56 70.77 35.56 L72.23 35.56 C72.65 35.56 72.71 35.56 73.16 34.57 L73.26 34.57 L73.26
							 35.47 C73.7 35.64 73.74 35.7 73.74 35.87 C73.74 36.34 73.36 36.56 72.24 36.56 L70.64 36.56 C69.41 36.56
							 69.19 36.31 69.19 35.27 L69.19 33.16 L67.4 33.16 L68.03 33.23 C68 33.4 67.88 33.47 67.55 33.48 C67.22
							 35.15 66.14 36.53 63.02 37.19 L63.03 37.19 ZM73.59 39.69 L73.69 39.69 L73.69 41.09 C74.06 41.23 74.12
							 41.31 74.12 41.53 C74.12 41.99 73.81 42.28 72.79 42.28 L71.42 42.28 C70.29 42.28 70.16 42 70.16 40.86
							 L70.16 38.23 L68.09 38.23 C67.6 40.25 66.26 41.79 62.84 42.51 L62.76 42.33 C65.34 41.51 66.35 40.04
							 66.69 38.23 L63.62 38.23 L63.55 37.99 L66.73 37.99 C66.82 37.36 66.86 36.73 66.83 36.09 L68.81 36.26
							 C68.81 36.44 68.66 36.51 68.31 36.55 C68.28 37.03 68.22 37.51 68.12 37.99 L70.02 37.99 L70.56 37.28
							 L71.87 38.27 C71.75 38.37 71.6 38.43 71.44 38.45 L71.44 40.94 C71.44 41.15 71.44 41.17 71.67 41.17 L72.83
							 41.17 C72.95 41.19 73.07 41.13 73.14 41.03 C73.32 40.59 73.47 40.15 73.58 39.69 L73.59 39.69 ZM85.04
							 34.66 L84.92 34.58 C84.98 34.28 85.06 33.72 85.11 33.32 L80.78 33.32 C80.78 33.44 80.78 33.54 80.78
							 33.64 C80.78 34.28 80.51 34.9 79.83 34.9 C79.67 34.92 79.52 34.87 79.4 34.77 C79.28 34.66 79.22 34.52
							 79.22 34.36 C79.24 34.07 79.42 33.83 79.69 33.72 C80.09 33.46 80.35 33.02 80.39 32.54 L80.57 32.54 C80.63
							 32.72 80.68 32.9 80.72 33.08 L82.22 33.08 L82.22 31.22 L83.96 31.39 C83.96 31.55 83.83 31.63 83.48 31.67
							 L83.48 33.05 L84.98 33.05 L85.64 32.41 L86.84 33.5 C86.7 33.6 86.54 33.65 86.38 33.63 C85.96 34.01 85.51
							 34.36 85.04 34.66 ZM78.08 32.09 L78.74 31.34 L79.94 32.57 C79.84 32.68 79.67 32.72 79.4 32.72 C79.01
							 33.42 78.26 34.73 77.75 35.48 C79.02 36.32 79.65 37.25 79.65 38.21 L79.65 38.3 C79.72 38.81 79.56 39.33
							 79.21 39.71 C78.86 40.09 78.35 40.28 77.84 40.25 C77.84 39.44 77.63 39.29 77.09 39.19 L77.09 39.03 L77.84
							 39.03 C78.23 39.03 78.35 38.65 78.35 38.15 C78.36 37.19 78.02 36.26 77.41 35.51 C77.61 34.76 77.9 33.26
							 78.07 32.3 L76.88 32.3 L76.88 42.11 C76.88 42.2 76.52 42.5 75.92 42.5 L75.72 42.5 L75.72 31.55 L77.06
							 32.06 L78.08 32.09 ZM80.51 35.14 L83.84 35.14 L84.47 34.3 L85.67 35.16 C85.57 35.32 85.41 35.38 85.1
							 35.38 L80.54 35.38 L80.51 35.14 ZM86.09 39.77 L86.2 39.77 L86.2 41.15 C86.58 41.33 86.63 41.39 86.63
							 41.54 C86.63 41.99 86.28 42.23 85.34 42.23 L84.4 42.23 C83.32 42.23 83.12 41.97 83.12 40.91 L83.12 37.41
							 L82.67 37.41 C82.63 37.51 82.49 37.55 82.25 37.58 C82.1 39.65 81.41 41.63 78.59 42.5 L78.48 42.35 C80.45
							 41.39 80.96 39.45 81 37.41 L79.65 37.41 L79.59 37.17 L84.69 37.17 L85.35 36.27 L86.58 37.19 C86.48 37.35
							 86.34 37.41 86.02 37.41 L84.69 37.41 C84.64 37.49 84.54 37.52 84.34 37.55 L84.34 40.93 C84.34 41.23
							 84.34 41.24 84.54 41.24 L85.29 41.24 C85.43 41.27 85.56 41.2 85.62 41.07 C85.81 40.65 85.97 40.22 86.09
							 39.77 Z" class="st1"/>
			</g>
		</g>
	</g>
</svg>
